<svg width="60" height="60" viewBox="0 0 60 60" fill="none" xmlns="http://www.w3.org/2000/svg">
<path d="M59.6517 25.2353C59.3743 24.9581 58.9761 24.838 58.5919 24.9152L48.493 26.9477C48.0697 27.033 47.7274 27.3442 47.6025 27.7575C47.4776 28.1709 47.5902 28.6196 47.8955 28.9251L49.2618 30.2914L43.8995 35.6537L39.7483 31.5025C39.5285 31.2828 39.2305 31.1593 38.9198 31.1593C38.609 31.1593 38.311 31.2828 38.0912 31.5025L32.9975 36.5964L34.9082 29.7309C35.3727 28.0619 35.038 26.3136 33.9901 24.9341C33.3482 24.0892 32.5007 23.4663 31.5427 23.1094L33.0701 18.7461C33.4916 18.7831 33.912 18.802 34.3277 18.802C37.7113 18.802 41.0104 17.6094 43.6172 15.444L43.8965 15.2121C45.2709 14.0702 45.5057 12.0858 44.4314 10.6947C43.8866 9.98912 43.0994 9.54666 42.2147 9.44893C41.3297 9.35108 40.4649 9.61075 39.7801 10.1797L39.4629 10.4432C38.9955 10.8314 38.4843 11.1666 37.9437 11.4393C36.1368 12.3507 33.8804 11.9448 32.3811 10.461C34.562 9.78547 36.1507 7.74961 36.1507 5.34955C36.1508 2.39982 33.7509 0 30.8011 0C27.8511 0 25.4513 2.39982 25.4513 5.34967C25.4513 6.52357 25.8322 7.60958 26.4756 8.49263C25.2586 8.75465 24.1634 9.38214 23.3253 10.2693C23.2764 10.3122 23.2296 10.3586 23.1871 10.4108C21.1214 12.9482 18.3675 14.7683 15.2232 15.6739C14.3719 15.9193 13.6981 16.4846 13.2938 17.2012L10.8921 14.7995C9.84121 13.7488 8.13157 13.7489 7.0806 14.7995L3.93752 17.9427L0.794437 21.0858C0.285296 21.5948 0.00500488 22.2715 0.00500488 22.9916C0.00500488 23.7116 0.285413 24.3883 0.79432 24.8974L9.4544 33.5575C9.96354 34.0665 10.6402 34.3468 11.3602 34.3468C12.0803 34.3468 12.757 34.0664 13.266 33.5575L16.5204 30.3031L14.9773 34.3495C14.7467 34.9541 15.0499 35.6313 15.6546 35.8619C15.792 35.9143 15.9331 35.9391 16.0719 35.9391C16.5439 35.9391 16.9889 35.6518 17.1671 35.1846L21.0103 25.1072H28.3469H29.6151C30.6087 25.1072 31.523 25.5609 32.124 26.3519C32.725 27.143 32.917 28.1456 32.6505 29.1026L29.9878 38.6698C29.8681 39.1003 29.4723 39.4009 29.0253 39.4009C28.6243 39.4009 28.3771 39.1814 28.2654 39.0505C28.1538 38.9196 27.9756 38.6408 28.0386 38.245L29.4554 29.338C29.5093 28.9992 29.412 28.654 29.1894 28.3932C28.9667 28.1324 28.641 27.9821 28.2981 27.9821H25.5201C25.0782 27.9821 24.6738 28.2307 24.4744 28.625C24.4059 28.7602 17.6071 42.203 15.316 46.7453C15.0867 47.2002 14.5881 47.4598 14.0769 47.3898L14.0213 47.3823C13.6725 47.3352 13.3695 47.1346 13.1896 46.8319C13.0097 46.5293 12.9787 46.1671 13.1042 45.8383L13.8262 43.945C14.0568 43.3404 13.7536 42.6633 13.1489 42.4326C12.5444 42.202 11.8672 42.5054 11.6365 43.1099L10.9144 45.0031C10.5326 46.0045 10.6275 47.1073 11.1748 48.0288C11.7222 48.9502 12.6452 49.5611 13.7063 49.7048L13.7619 49.7122C13.9225 49.7341 14.0826 49.7445 14.2416 49.7445C15.5683 49.7445 16.8022 49.0033 17.4086 47.8008C19.4098 43.8331 24.8523 33.0707 26.2406 30.3257H26.9253L25.7242 37.8768C25.5703 38.8443 25.8469 39.8268 26.483 40.5719C26.8922 41.0513 27.4221 41.3983 28.0087 41.5854L14.9553 54.6387C14.7356 54.8586 14.6121 55.1565 14.6121 55.4673C14.6121 55.7781 14.7356 56.0762 14.9553 56.2959L18.3164 59.6568C18.5452 59.8855 18.8451 60 19.145 60C19.4448 60 19.7447 59.8855 19.9735 59.6568L26.4349 53.1954C26.8924 52.7379 26.8924 51.9959 26.4349 51.5382C25.9772 51.0807 25.2354 51.0807 24.7776 51.5382L19.145 57.171L17.4412 55.4672L38.92 33.9881L43.0712 38.1393C43.291 38.359 43.589 38.4825 43.8997 38.4825C44.2105 38.4825 44.5085 38.359 44.7283 38.1393L51.7477 31.1198C52.2052 30.6622 52.2052 29.9203 51.7477 29.4626L51.0987 28.8136L57.3267 27.5603L56.0733 33.7882L55.1088 32.8237C54.6511 32.3662 53.9094 32.3662 53.4516 32.8237L43.8996 42.3756L39.7485 38.2245C39.2908 37.767 38.549 37.767 38.0912 38.2245L31.4061 44.9096C30.9485 45.3672 30.9485 46.1092 31.4061 46.5669C31.8638 47.0243 32.6055 47.0243 33.0633 46.5669L38.9198 40.7104L43.0709 44.8616C43.5286 45.319 44.2704 45.319 44.7282 44.8616L54.2801 35.3097L55.9621 36.9916C56.2675 37.297 56.7164 37.4098 57.1296 37.2847C57.543 37.1599 57.8543 36.8176 57.9395 36.3941L59.972 26.2951C60.0493 25.9106 59.9291 25.5128 59.6517 25.2353ZM30.8011 2.34357C32.4587 2.34357 33.8072 3.69218 33.8072 5.34967C33.8072 7.00728 32.4585 8.35589 30.8011 8.35589C29.1434 8.35589 27.7948 7.00728 27.7948 5.34967C27.7948 3.69218 29.1434 2.34357 30.8011 2.34357ZM19.206 23.1135L17.7799 21.6874C18.4572 21.4664 19.1225 21.2137 19.7737 20.9309L19.206 23.1135ZM15.2513 19.0488C15.1128 18.5681 15.3914 18.0645 15.872 17.926C17.7983 17.371 19.595 16.5142 21.2137 15.3953L20.552 17.9392C19.2347 18.6671 17.8322 19.2493 16.3738 19.6694C16.3467 19.6771 16.3184 19.6839 16.2904 19.6893C16.0742 19.7304 15.8579 19.6874 15.6762 19.5838L15.333 19.2406C15.2992 19.1807 15.271 19.117 15.2513 19.0488ZM8.73762 16.4567C8.80617 16.3881 8.89628 16.3539 8.98627 16.3539C9.07627 16.3539 9.16638 16.3881 9.23481 16.4567L13.5062 20.7281C13.7044 20.9986 13.9406 21.2345 14.2067 21.4286L17.895 25.1169C18.0321 25.2539 18.0321 25.477 17.895 25.6139L15.5805 27.9285L13.0064 25.3544L13.4967 24.8641C13.9543 24.4065 13.9543 23.6646 13.4967 23.2069L10.859 20.5692C10.4013 20.1117 9.65958 20.1117 9.20177 20.5692L8.71149 21.0595L6.42311 18.7711L8.73762 16.4567ZM10.3416 24.705C10.2294 24.8171 10.0985 24.834 10.0305 24.834C9.96249 24.834 9.8316 24.8171 9.71946 24.7051V24.705L9.36101 24.3467C9.24899 24.2345 9.23211 24.1036 9.23211 24.0357C9.23211 23.9676 9.24899 23.8367 9.36113 23.7246L10.0305 23.0552L11.0109 24.0357L10.3416 24.705ZM11.6087 31.9003C11.5235 31.9854 11.4266 32.0032 11.3602 32.0032C11.2939 32.0032 11.1967 31.9854 11.1117 31.9002L2.45158 23.2401C2.36639 23.155 2.34858 23.0579 2.34858 22.9916C2.34858 22.9252 2.36639 22.8281 2.45158 22.7431L4.76597 20.4286L7.16391 22.8264C6.98404 23.1988 6.88854 23.6098 6.88854 24.0357C6.88854 24.7793 7.17821 25.4783 7.70387 26.0039L8.0622 26.3621V26.3623C8.58787 26.8879 9.28695 27.1776 10.0305 27.1776C10.4563 27.1776 10.8673 27.0822 11.2397 26.9022L13.9234 29.5858L11.6087 31.9003ZM28.3468 22.7636H21.7187L24.1259 13.5096C24.5564 11.8551 26.051 10.6996 27.7606 10.6996C28.8168 10.6996 29.7937 11.1254 30.5114 11.8987C32.7129 14.2708 36.2036 14.9424 38.9993 13.5319C39.6975 13.1798 40.3574 12.7473 40.9607 12.246L41.2779 11.9824C41.4691 11.8236 41.7104 11.7507 41.9576 11.7786C42.2043 11.8057 42.4241 11.9295 42.5767 12.1272C42.8712 12.5083 42.7914 13.0837 42.399 13.4096L42.1199 13.6415C39.9329 15.4582 37.1656 16.4587 34.3278 16.4587C33.7115 16.4587 33.0817 16.4093 32.4556 16.312C31.8968 16.2243 31.3562 16.5491 31.1695 17.0826L29.1807 22.7636H28.3468Z" fill="white"/>
<path d="M28.9425 47.9027C28.6344 47.9027 28.332 48.028 28.1141 48.246C27.8961 48.4639 27.7708 48.7662 27.7708 49.0745C27.7708 49.3838 27.896 49.685 28.1141 49.9028C28.332 50.122 28.6344 50.2463 28.9425 50.2463C29.2507 50.2463 29.553 50.122 29.7709 49.9028C29.9888 49.685 30.1143 49.3837 30.1143 49.0745C30.1143 48.7662 29.9889 48.4639 29.7709 48.246C29.553 48.028 29.2507 47.9027 28.9425 47.9027Z" fill="white"/>
<path d="M14.3996 40.3258C14.7077 40.3258 15.0101 40.2004 15.228 39.9823C15.4459 39.7645 15.5714 39.4621 15.5714 39.154C15.5714 38.8458 15.446 38.5435 15.228 38.3255C15.0089 38.1076 14.7077 37.9822 14.3996 37.9822C14.0914 37.9822 13.7891 38.1074 13.5699 38.3255C13.3521 38.5435 13.2278 38.8458 13.2278 39.154C13.2278 39.4621 13.3521 39.7645 13.5699 39.9823C13.7891 40.2003 14.0902 40.3258 14.3996 40.3258Z" fill="white"/>
</svg>
