<svg width="60" height="60" viewBox="0 0 60 60" fill="none" xmlns="http://www.w3.org/2000/svg">
<path d="M5.39768 40.2844L8.43752 41.0444V46.5105C8.435 47.6209 8.82773 48.6959 9.54543 49.5432C10.2631 50.3905 11.2589 50.9547 12.3546 51.1349L17.3367 51.9645C17.9943 52.0725 18.5919 52.411 19.0226 52.9195C19.4533 53.4279 19.689 54.073 19.6875 54.7394V57.1874C19.6875 57.4361 19.7863 57.6745 19.9621 57.8503C20.1379 58.0261 20.3764 58.1249 20.625 58.1249H38.4375C38.5779 58.1249 38.7165 58.0934 38.8431 58.0327C38.9697 57.972 39.081 57.8836 39.1688 57.7741C39.2567 57.6646 39.3188 57.5367 39.3506 57.4C39.3825 57.2633 39.3832 57.1211 39.3528 56.9841C38.4226 52.7984 37.9981 50.8881 38.6358 48.6559C39.2987 46.3356 41.1515 43.5566 44.8426 38.02C47.913 33.4145 48.361 27.9177 46.1108 22.8367C46.1231 22.8276 46.1349 22.8178 46.1473 22.8091C47.1864 22.0668 48.0435 21.0983 48.6539 19.9767C49.2643 18.855 49.6122 17.6094 49.6713 16.3338C49.7304 15.0582 49.4992 13.7858 48.995 12.6125C48.4909 11.4392 47.727 10.3956 46.761 9.56048C45.795 8.72531 44.652 8.12032 43.4181 7.79109C42.1843 7.46186 40.8918 7.41699 39.6381 7.65986C38.3844 7.90273 37.2022 8.427 36.1806 9.19316C35.159 9.95932 34.3246 10.9474 33.7403 12.0829C31.9195 11.5312 30.0275 11.2505 28.125 11.2499C22.9636 11.2499 18.4342 12.5835 15.0263 15.1066C11.536 17.6907 9.44147 21.3537 8.9692 25.7003C8.89675 26.3737 8.96923 27.0547 9.18178 27.6978L10.0711 30.3644C10.1166 30.4997 10.1303 30.6437 10.1111 30.7851C10.092 30.9266 10.0407 31.0618 9.96096 31.1802L4.84455 38.8548C4.76118 38.9798 4.70908 39.1231 4.69264 39.2724C4.6762 39.4218 4.6959 39.5729 4.75007 39.713C4.80425 39.8532 4.89131 39.9782 5.00394 40.0777C5.11656 40.1772 5.25144 40.2481 5.39721 40.2845L5.39768 40.2844ZM36.7186 11.1903C37.9356 10.0205 39.5597 9.36956 41.2477 9.37491C41.3522 9.37491 41.4572 9.37734 41.5626 9.38218C42.9256 9.44687 44.2346 9.93484 45.3073 10.7782C46.3801 11.6215 47.1632 12.7783 47.5479 14.0876C47.9325 15.3968 47.8994 16.7934 47.4533 18.0829C47.0071 19.3725 46.1701 20.4909 45.0586 21.2826C44.4581 21.7155 43.9695 22.2854 43.6332 22.9449C43.2969 23.6044 43.1227 24.3346 43.125 25.0749V25.3124C43.1247 25.561 43.0259 25.7993 42.8501 25.975C42.6744 26.1508 42.4361 26.2496 42.1875 26.2499H40.3125C40.064 26.2496 39.8257 26.1508 39.6499 25.975C39.4742 25.7993 39.3753 25.561 39.375 25.3124V25.0749C39.3771 24.3344 39.2028 23.6041 38.8664 22.9445C38.53 22.2848 38.0412 21.7148 37.4406 21.2817C36.5901 20.6737 35.8967 19.8718 35.418 18.9424C34.9392 18.013 34.6888 16.9829 34.6875 15.9374C34.6842 15.0494 34.8626 14.1701 35.2119 13.3537C35.5612 12.5373 36.074 11.801 36.7186 11.1903ZM40.3125 29.9999V28.1249H42.1875V29.9999H40.3125ZM11.5215 32.2203C11.7604 31.8645 11.9142 31.4586 11.9711 31.0339C12.028 30.6092 11.9864 30.1771 11.8497 29.771L10.9607 27.1054C10.8329 26.7182 10.7895 26.3082 10.8332 25.9029C11.6767 18.1405 18.4642 13.1249 28.125 13.1249C29.8 13.1257 31.4663 13.3669 33.0728 13.841C32.6537 15.4921 32.7424 17.2311 33.3273 18.8309C33.9123 20.4307 34.9663 21.8168 36.3516 22.808C36.7093 23.0674 37.0001 23.4084 37.1998 23.8026C37.3996 24.1968 37.5025 24.633 37.5 25.0749V25.3124C37.4999 25.7078 37.5834 26.0988 37.7449 26.4596C37.9065 26.8205 38.1425 27.1432 38.4375 27.4064V30.9374C38.4375 31.1861 38.5363 31.4245 38.7121 31.6003C38.8879 31.7761 39.1264 31.8749 39.375 31.8749H40.3125V33.7499H35.2874L29.9138 22.107C29.8387 21.9444 29.7187 21.8067 29.5678 21.7102C29.4169 21.6137 29.2416 21.5624 29.0625 21.5624H23.2763C23.0551 20.9369 22.62 20.4097 22.0477 20.074C21.4754 19.7383 20.8029 19.6157 20.149 19.7279C19.4951 19.8401 18.9019 20.1799 18.4743 20.6871C18.0467 21.1944 17.8121 21.8365 17.8121 22.4999C17.8121 23.1634 18.0467 23.8055 18.4743 24.3127C18.9019 24.82 19.4951 25.1597 20.149 25.2719C20.8029 25.3841 21.4754 25.2615 22.0477 24.9258C22.62 24.5901 23.0551 24.0629 23.2763 23.4374H28.4626L30.6262 28.1249H26.0888C25.8676 27.4994 25.4325 26.9722 24.8602 26.6365C24.2879 26.3008 23.6154 26.1782 22.9615 26.2904C22.3076 26.4026 21.7144 26.7424 21.2868 27.2496C20.8592 27.7569 20.6246 28.399 20.6246 29.0624C20.6246 29.7259 20.8592 30.368 21.2868 30.8752C21.7144 31.3825 22.3076 31.7222 22.9615 31.8344C23.6154 31.9466 24.2879 31.824 24.8602 31.4883C25.4325 31.1526 25.8676 30.6254 26.0888 29.9999H31.4911L33.8358 35.0803C33.9109 35.243 34.031 35.3808 34.182 35.4773C34.3329 35.5738 34.5084 35.625 34.6875 35.6249H41.25C41.4987 35.6249 41.7371 35.5261 41.9129 35.3503C42.0887 35.1745 42.1875 34.9361 42.1875 34.6874V31.8749H43.125C43.3737 31.8749 43.6121 31.7761 43.7879 31.6003C43.9637 31.4245 44.0625 31.1861 44.0625 30.9374V27.4064C44.3575 27.1432 44.5935 26.8205 44.7551 26.4596C44.9167 26.0988 45.0001 25.7078 45 25.3124V25.1972C45.4828 26.716 45.7012 28.3063 45.6458 29.899C45.5468 32.3935 44.7517 34.7758 43.2825 36.9798C36.0462 47.8343 35.5886 48.5206 37.2708 56.2499H21.5625V54.7394C21.565 53.629 21.1723 52.5539 20.4546 51.7066C19.7369 50.8593 18.7411 50.2951 17.6454 50.1149L12.6633 49.2853C12.0058 49.1773 11.4081 48.8388 10.9774 48.3304C10.5467 47.8219 10.311 47.1768 10.3125 46.5105V40.3124C10.3125 40.1033 10.2426 39.9003 10.1139 39.7355C9.98527 39.5707 9.8052 39.4536 9.60236 39.4029L7.14295 38.788L11.5215 32.2203ZM21.5625 22.4999C21.5625 22.6853 21.5075 22.8666 21.4045 23.0208C21.3015 23.1749 21.1551 23.2951 20.9838 23.3661C20.8125 23.437 20.624 23.4556 20.4421 23.4194C20.2603 23.3832 20.0932 23.2939 19.9621 23.1628C19.831 23.0317 19.7417 22.8647 19.7055 22.6828C19.6694 22.501 19.6879 22.3125 19.7589 22.1411C19.8298 21.9698 19.95 21.8234 20.1042 21.7204C20.2583 21.6174 20.4396 21.5624 20.625 21.5624C20.8736 21.5627 21.1119 21.6616 21.2876 21.8373C21.4634 22.0131 21.5622 22.2514 21.5625 22.4999ZM24.375 29.0624C24.375 29.2478 24.32 29.4291 24.217 29.5833C24.114 29.7374 23.9676 29.8576 23.7963 29.9286C23.625 29.9995 23.4365 30.0181 23.2546 29.9819C23.0728 29.9457 22.9057 29.8564 22.7746 29.7253C22.6435 29.5942 22.5542 29.4272 22.518 29.2453C22.4819 29.0635 22.5004 28.875 22.5714 28.7036C22.6423 28.5323 22.7625 28.3859 22.9167 28.2829C23.0708 28.1799 23.2521 28.1249 23.4375 28.1249C23.6861 28.1252 23.9244 28.2241 24.1001 28.3998C24.2759 28.5756 24.3747 28.8139 24.375 29.0624Z" fill="white"/>
<path d="M41.25 5.625C41.4986 5.625 41.7371 5.52623 41.9129 5.35041C42.0887 5.1746 42.1875 4.93614 42.1875 4.6875V2.8125C42.1875 2.56386 42.0887 2.3254 41.9129 2.14959C41.7371 1.97377 41.4986 1.875 41.25 1.875C41.0014 1.875 40.7629 1.97377 40.5871 2.14959C40.4113 2.3254 40.3125 2.56386 40.3125 2.8125V4.6875C40.3125 4.93614 40.4113 5.1746 40.5871 5.35041C40.7629 5.52623 41.0014 5.625 41.25 5.625Z" fill="white"/>
<path d="M32.6322 8.64531C32.7189 8.73396 32.8223 8.80454 32.9365 8.85295C33.0506 8.90136 33.1732 8.92665 33.2972 8.92734C33.4212 8.92803 33.5441 8.90412 33.6588 8.85699C33.7735 8.80986 33.8777 8.74045 33.9654 8.65277C34.0531 8.56509 34.1225 8.46089 34.1696 8.3462C34.2168 8.23151 34.2407 8.10861 34.24 7.98461C34.2393 7.86062 34.214 7.73799 34.1656 7.62383C34.1172 7.50968 34.0466 7.40626 33.9579 7.31957L32.6322 5.99371C32.5451 5.90665 32.4418 5.8376 32.328 5.79048C32.2143 5.74337 32.0924 5.71912 31.9693 5.71912C31.8461 5.71912 31.7242 5.74337 31.6105 5.79048C31.4967 5.8376 31.3934 5.90665 31.3063 5.99371C31.2193 6.08077 31.1502 6.18412 31.1031 6.29786C31.056 6.41161 31.0317 6.53352 31.0317 6.65664C31.0317 6.77976 31.056 6.90167 31.1031 7.01541C31.1502 7.12916 31.2193 7.23251 31.3063 7.31957L32.6322 8.64531Z" fill="white"/>
<path d="M28.125 16.875H30C30.2486 16.875 30.4871 16.7762 30.6629 16.6004C30.8387 16.4246 30.9375 16.1861 30.9375 15.9375C30.9375 15.6889 30.8387 15.4504 30.6629 15.2746C30.4871 15.0988 30.2486 15 30 15H28.125C27.8764 15 27.6379 15.0988 27.4621 15.2746C27.2863 15.4504 27.1875 15.6889 27.1875 15.9375C27.1875 16.1861 27.2863 16.4246 27.4621 16.6004C27.6379 16.7762 27.8764 16.875 28.125 16.875Z" fill="white"/>
<path d="M49.2049 8.92C49.328 8.92015 49.45 8.89596 49.5638 8.84882C49.6775 8.80168 49.7809 8.73252 49.8678 8.64531L51.1937 7.31957C51.2807 7.23251 51.3498 7.12916 51.3969 7.01541C51.444 6.90167 51.4683 6.77976 51.4683 6.65664C51.4683 6.53352 51.444 6.41161 51.3969 6.29787C51.3498 6.18412 51.2807 6.08077 51.1937 5.99371C51.1066 5.90665 51.0033 5.8376 50.8895 5.79048C50.7758 5.74337 50.6539 5.71912 50.5307 5.71912C50.4076 5.71912 50.2857 5.74337 50.172 5.79048C50.0582 5.8376 49.9549 5.90665 49.8678 5.99371L48.5421 7.31957C48.411 7.45067 48.3217 7.61771 48.2855 7.79956C48.2493 7.98141 48.2679 8.16991 48.3388 8.34121C48.4097 8.51252 48.5299 8.65894 48.6841 8.76196C48.8382 8.86498 49.0195 8.91998 49.2049 8.92Z" fill="white"/>
<path d="M52.5 16.875H54.375C54.6236 16.875 54.8621 16.7762 55.0379 16.6004C55.2137 16.4246 55.3125 16.1861 55.3125 15.9375C55.3125 15.6889 55.2137 15.4504 55.0379 15.2746C54.8621 15.0988 54.6236 15 54.375 15H52.5C52.2514 15 52.0129 15.0988 51.8371 15.2746C51.6613 15.4504 51.5625 15.6889 51.5625 15.9375C51.5625 16.1861 51.6613 16.4246 51.8371 16.6004C52.0129 16.7762 52.2514 16.875 52.5 16.875Z" fill="white"/>
<path d="M45 16.875C44.7514 16.875 44.5129 16.7762 44.3371 16.6004C44.1613 16.4246 44.0625 16.1861 44.0625 15.9375C44.0617 15.1918 43.7651 14.477 43.2378 13.9497C42.7105 13.4224 41.9957 13.1258 41.25 13.125C41.0014 13.125 40.7629 13.0262 40.5871 12.8504C40.4113 12.6746 40.3125 12.4361 40.3125 12.1875C40.3125 11.9389 40.4113 11.7004 40.5871 11.5246C40.7629 11.3488 41.0014 11.25 41.25 11.25C42.4928 11.2514 43.6842 11.7457 44.563 12.6245C45.4418 13.5033 45.9361 14.6947 45.9375 15.9375C45.9375 16.1861 45.8387 16.4246 45.6629 16.6004C45.4871 16.7762 45.2486 16.875 45 16.875Z" fill="white"/>
</svg>
