<svg width="60" height="60" viewBox="0 0 60 60" fill="none" xmlns="http://www.w3.org/2000/svg">
<g clip-path="url(#clip0)">
<path d="M57.1639 20.316L41.3988 29.7132C40.2349 30.4069 39.7687 31.8343 40.2382 33.0597C39.5353 33.3545 38.7486 33.3684 38.028 33.0899L35.9886 32.2887C35.175 31.9689 34.2967 31.9132 33.4489 32.1279L30.3243 32.9187C30.2031 32.9493 30.0844 32.9852 29.9682 33.0258C28.0593 31.936 26.9221 31.6102 24.9076 32.3891L23.0991 33.0883C22.2444 33.4186 21.3021 33.3402 20.5119 32.8722L19.9078 32.5161C20.0811 31.4352 19.596 30.3063 18.6012 29.7133L2.83605 20.316C1.58602 19.5712 0 20.4702 0 21.9272V39.5255C0 40.7407 0.648398 41.882 1.69219 42.5042L8.57555 46.6073C9.85594 47.3703 11.5018 46.9747 12.2988 45.7304L12.5931 45.904L11.7006 47.1473C10.7037 48.5356 11.0207 50.466 12.4092 51.4631C13.0956 51.9558 13.9321 52.1417 14.7517 51.9961C14.8772 52.8255 15.3239 53.5556 16.0058 54.0452C16.6903 54.5365 17.5321 54.7215 18.3495 54.5765C18.4698 55.3727 18.8981 56.1216 19.6024 56.6272C20.5514 57.3084 21.7281 57.3639 22.6833 56.9328C22.8934 57.5152 23.2737 58.0204 23.7874 58.3893C25.1222 59.3474 26.973 59.0888 27.9966 57.8206L30.3086 59.1903C30.802 59.4827 31.3444 59.6216 31.88 59.6216C32.9377 59.6216 33.9695 59.0798 34.5465 58.1057C34.7902 57.6945 34.9274 57.2491 34.9663 56.802L35.0563 56.8553C35.7673 57.2765 36.5998 57.3958 37.3999 57.1907C38.2004 56.9859 38.8732 56.4815 39.2943 55.7708C39.5546 55.3313 39.6995 54.8454 39.7239 54.3495C40.239 54.4934 40.7854 54.5001 41.3175 54.364C42.118 54.1592 42.7908 53.6548 43.2118 52.9441C43.4569 52.5306 43.5997 52.0761 43.6358 51.6105C45.0387 52.2043 46.7036 51.6831 47.5008 50.3376C48.2009 49.1559 48.0214 47.6928 47.1586 46.7139L48.0647 46.1846C48.9238 47.0519 50.3066 47.2734 51.4246 46.6072L53.0886 45.6152C53.5057 45.3666 53.6422 44.8271 53.3937 44.4102C53.145 43.9931 52.6051 43.8568 52.1888 44.1052L50.5247 45.0972C50.1323 45.3312 49.6547 45.2599 49.3468 44.9782C49.3411 44.9288 41.953 32.582 41.953 32.582C41.6747 32.1122 41.8298 31.5026 42.2988 31.223L58.0639 21.8259C58.1443 21.7785 58.2422 21.835 58.2422 21.9271V39.5254C58.2422 40.1246 57.9224 40.6874 57.4078 40.9941L55.7462 41.9846C55.3291 42.2331 55.1926 42.7727 55.4412 43.1895C55.6896 43.6066 56.2295 43.7426 56.6461 43.4945L58.3077 42.5041C59.3515 41.8819 59.9999 40.7406 59.9999 39.5254V21.9272C60 20.4722 58.4155 19.5699 57.1639 20.316ZM33.8801 33.832C34.3693 33.7082 34.8762 33.7403 35.3459 33.9248L37.3897 34.7277C38.6096 35.1994 39.942 35.1476 41.1042 34.5986L47.0971 44.7142L46.1259 45.2816C45.9495 45.3862 45.7802 45.502 45.6192 45.6283L32.8023 38.0382C32.5305 37.8773 32.1934 37.8746 31.9193 38.0309C31.645 38.1872 31.4756 38.4787 31.4756 38.7945V38.9711C31.4756 39.5963 31.2321 40.1841 30.7898 40.626C30.3479 41.0677 29.7606 41.3108 29.1361 41.3108C29.0346 41.307 28.9452 41.2256 28.9451 41.1197V36.9484C28.9451 36.0397 29.4538 35.2285 30.2323 34.8222C30.2709 34.8066 30.3087 34.7882 30.345 34.7671C30.4753 34.7076 30.6125 34.6591 30.7554 34.6229L33.8801 33.832ZM10.2289 45.2066C9.97149 45.2718 9.70383 45.2335 9.47555 45.0972L2.59219 40.9942C2.0775 40.6874 1.75781 40.1247 1.75781 39.5255V21.9272C1.75781 21.9085 1.75781 21.8587 1.81746 21.8248C1.83973 21.8122 1.85977 21.8077 1.87688 21.8077C1.90547 21.8077 1.92598 21.8199 1.93605 21.8259L17.7013 31.223C18.1703 31.5026 18.3255 32.1122 18.0471 32.5822L10.8382 44.7506C10.7029 44.9791 10.4864 45.1411 10.2289 45.2066ZM14.4291 50.268C14.0773 50.3259 13.7241 50.243 13.4343 50.0351C13.1447 49.8272 12.9533 49.519 12.8955 49.1672C12.8378 48.8153 12.9204 48.4621 13.1284 48.1725L14.3823 46.4259C14.4129 46.3832 14.4457 46.343 14.4802 46.3052C14.5062 46.2818 14.5309 46.2566 14.5543 46.2299C15.0098 45.8032 15.7194 45.7427 16.2451 46.12C16.843 46.5493 16.9802 47.3849 16.551 47.9828C16.5503 47.9838 16.5496 47.9848 16.5489 47.9858L15.297 49.7295C15.0892 50.019 14.7809 50.2102 14.4291 50.268ZM17.0309 52.6171C16.7413 52.4092 16.5499 52.101 16.4921 51.7492C16.4344 51.3973 16.517 51.0441 16.725 50.7545L17.9789 49.0079C17.9789 49.0079 17.9789 49.0077 17.979 49.0077L19.3628 47.0802C19.5707 46.7906 19.8789 46.5993 20.2308 46.5414C20.304 46.5293 20.3771 46.5235 20.4499 46.5235C20.7268 46.5235 20.9961 46.6096 21.2256 46.7744C21.8235 47.2035 21.9607 48.0392 21.5314 48.6372L18.8936 52.3115C18.4643 52.9093 17.6286 53.046 17.0309 52.6171ZM21.6221 55.432C21.2705 55.4897 20.9171 55.407 20.6275 55.1991C20.0296 54.77 19.8923 53.9343 20.3216 53.3364C20.3223 53.3354 20.323 53.3344 20.3237 53.3334L22.9595 49.662C23.3886 49.064 24.2243 48.9271 24.8223 49.3561C25.1119 49.564 25.3032 49.8722 25.361 50.2241C25.4188 50.5759 25.3361 50.9293 25.1282 51.2188L22.4903 54.8931C22.2823 55.1828 21.9739 55.3742 21.6221 55.432ZM24.8125 56.9613C24.5229 56.7534 24.3315 56.4452 24.2738 56.0933C24.216 55.7415 24.2986 55.3882 24.5066 55.0987C24.5075 55.0974 24.5084 55.0962 24.5092 55.0949L25.3847 53.8755C25.8143 53.2788 26.649 53.142 27.2464 53.5709C27.8443 54.0002 27.9816 54.8358 27.5523 55.4337L27.0507 56.1324C27.0455 56.1394 27.0403 56.1467 27.0353 56.154L26.6752 56.6556C26.2461 57.2533 25.4106 57.3906 24.8125 56.9613ZM45.9885 49.4417C45.6131 50.0751 44.792 50.2852 44.1591 49.9099L42.1271 48.7062C42.1262 48.7058 42.1254 48.7052 42.1245 48.7047L35.8315 44.9765C35.4137 44.7291 34.8746 44.867 34.6274 45.2846C34.38 45.7022 34.5178 46.2414 34.9355 46.4887L41.2313 50.2185C41.2313 50.2185 41.2313 50.2185 41.2314 50.2186L41.2322 50.2191C41.865 50.5947 42.0746 51.415 41.6996 52.0482C41.5178 52.3551 41.2274 52.5728 40.8818 52.6612C40.5362 52.7495 40.1768 52.6983 39.8699 52.5163L38.2137 51.5352C38.2123 51.5344 38.2111 51.5336 38.2097 51.5328C38.2089 51.5323 38.2079 51.5317 38.2071 51.5313L33.5711 48.7847C33.1533 48.5372 32.6143 48.6753 32.367 49.0928C32.1196 49.5105 32.2574 50.0497 32.675 50.2969L37.3112 53.0436C37.3121 53.0441 37.3131 53.0447 37.3139 53.0452C37.6207 53.227 37.8386 53.5174 37.9269 53.8629C38.0154 54.2085 37.9638 54.5679 37.7821 54.8749C37.6003 55.1818 37.3099 55.3995 36.9642 55.4879C36.6188 55.5763 36.2592 55.5249 35.9524 55.3431L33.4668 53.8706C33.4651 53.8696 33.4636 53.8686 33.4621 53.8676L31.6443 52.7908C31.2268 52.5436 30.6877 52.6813 30.4402 53.0991C30.1929 53.5166 30.3307 54.0558 30.7485 54.3032L32.5662 55.38L32.5686 55.3815C33.2004 55.7574 33.4095 56.5769 33.0347 57.2097C32.6591 57.8432 31.8383 58.0531 31.205 57.6781L29.0293 56.3891C29.9644 55.0093 29.6343 53.1209 28.2721 52.1429C27.8557 51.844 27.3896 51.6638 26.9143 51.5954C27.1246 51.0756 27.189 50.5068 27.0959 49.9395C26.962 49.1243 26.5187 48.4101 25.8477 47.9283C25.1435 47.4229 24.297 47.2565 23.5041 47.397C23.3837 46.6008 22.9554 45.8519 22.2511 45.3463C21.58 44.8646 20.7618 44.6731 19.9464 44.8068C19.2655 44.9186 18.6552 45.2463 18.1918 45.7422C17.976 45.3384 17.667 44.9766 17.2706 44.692C16.2203 43.938 14.8532 43.9384 13.8198 44.5868L13.1966 44.219L19.1764 34.1253L19.618 34.3856C20.3606 34.8256 21.189 35.0488 22.0236 35.0488C22.5994 35.0488 23.178 34.9425 23.7334 34.7279L25.5418 34.0287C26.6229 33.6111 27.2034 33.5913 28.2949 34.1222C27.6011 34.8709 27.1876 35.87 27.1876 36.9484V41.1197C27.1876 42.1935 28.0605 43.0677 29.1336 43.0686H29.1363C30.2303 43.0686 31.2588 42.6427 32.0327 41.8694C32.5024 41.4 32.8441 40.8367 33.0404 40.222L45.2823 47.4714C45.3227 47.4954 45.3645 47.5157 45.4071 47.5326C45.4423 47.5616 45.48 47.5884 45.5205 47.6124C46.1536 47.9876 46.3637 48.8083 45.9885 49.4417Z" fill="white"/>
<path d="M19.9251 23.2794H40.0749C41.8993 23.2794 43.3834 21.7953 43.3834 19.9709V7.98236C43.3834 6.15798 41.8993 4.6738 40.0749 4.6738H35.2243V3.28115C35.2243 1.6806 33.9223 0.378296 32.3219 0.378296H27.6778C26.0775 0.378296 24.7755 1.68048 24.7755 3.28115V4.6738H19.9248C18.1005 4.6738 16.6163 6.15798 16.6163 7.98236V14.5865C16.6163 15.072 17.0098 15.4654 17.4952 15.4654C17.9806 15.4654 18.3741 15.072 18.3741 14.5865V12.953C19.3095 13.7924 20.5451 14.3037 21.8978 14.3037H22.5857V15.2705C22.5857 15.756 22.9792 16.1494 23.4646 16.1494C23.95 16.1494 24.3435 15.756 24.3435 15.2705V14.3037H35.656V15.2705C35.656 15.756 36.0494 16.1494 36.5349 16.1494C37.0204 16.1494 37.4138 15.756 37.4138 15.2705V14.3037H38.1016C39.4544 14.3037 40.69 13.7924 41.6254 12.953V19.9708C41.6254 20.8259 40.9296 21.5215 40.0746 21.5215H19.9251C19.0699 21.5215 18.3743 20.8258 18.3743 19.9708V18.6953C18.3743 18.2098 17.9808 17.8164 17.4954 17.8164C17.01 17.8164 16.6165 18.2098 16.6165 18.6953V19.9708C16.6165 21.7953 18.1007 23.2794 19.9251 23.2794ZM26.5335 3.28115C26.5335 2.64974 27.0469 2.13611 27.6781 2.13611H32.3221C32.9533 2.13611 33.4667 2.64974 33.4667 3.28115V4.6738H26.5336V3.28115H26.5335ZM38.1019 12.5459H37.4141V11.5791C37.4141 11.0936 37.0207 10.7002 36.5352 10.7002C36.0497 10.7002 35.6563 11.0936 35.6563 11.5791V12.5459H24.3439V11.5791C24.3439 11.0936 23.9503 10.7002 23.4649 10.7002C22.9796 10.7002 22.586 11.0936 22.586 11.5791V12.5459H21.8981C19.9552 12.5459 18.3744 10.9651 18.3744 9.02216V7.98236C18.3744 7.12724 19.0701 6.43162 19.9252 6.43162H40.075C40.9301 6.43162 41.6257 7.12736 41.6257 7.98236V9.02216C41.6257 10.9651 40.045 12.5459 38.1019 12.5459Z" fill="white"/>
</g>
<defs>
<clipPath id="clip0">
<rect width="60" height="60" fill="white"/>
</clipPath>
</defs>
</svg>
