<svg width="60" height="60" viewBox="0 0 60 60" fill="none" xmlns="http://www.w3.org/2000/svg">
<g clip-path="url(#clip0)">
<path d="M47.3206 39.1991L43.7992 38.1652L36.138 33.1612V32.0146C38.3561 30.3415 39.8793 27.7841 40.1624 24.8527C41.2749 24.6736 42.1272 23.7069 42.1272 22.5449V19.392C42.1272 19.3798 42.1259 19.3678 42.1253 19.3557V15.3617C42.5685 15.0443 42.8498 14.5274 42.8498 13.9476V10.2925L48.1369 9.3919C49.0059 9.2439 49.6307 8.55378 49.6921 7.67452C49.7533 6.79526 49.2303 6.02511 48.3904 5.75804L30.5665 0.0887402C30.1946 -0.0296191 29.8018 -0.029502 29.4301 0.088623L11.606 5.75804C10.7661 6.02511 10.2429 6.79526 10.3042 7.6744C10.3431 8.23304 10.6101 8.71468 11.0221 9.03015V13.8099H10.9785C9.97482 13.8099 9.15826 14.6264 9.15826 15.6301V18.0027L7.98322 24.8994C7.78014 26.0923 8.69889 27.1841 9.91178 27.1841H13.8902C15.1004 27.1841 16.0223 26.0949 15.8187 24.8993L14.6437 18.0027V15.6301C14.6437 14.6264 13.8271 13.8099 12.8234 13.8099H12.7799V9.54858L17.1503 10.293V13.9476C17.1503 14.525 17.4303 15.041 17.8714 15.3589L17.873 19.3923V22.5449C17.873 23.7071 18.7253 24.6736 19.8378 24.8527C20.1208 27.7825 21.6424 30.3387 23.8584 32.0119V33.1639L16.1988 38.1669L12.6802 39.1997C8.9151 40.3048 6.25658 43.7615 6.25658 47.7796V50.399C6.25658 50.8844 6.64998 51.2779 7.13549 51.2779C7.621 51.2779 8.01439 50.8845 8.01439 50.399V47.7796C8.01439 44.6127 10.1365 41.7781 13.1753 40.8863L16.4538 39.9239L29.5513 47.7067C29.8172 47.8647 30.169 47.8731 30.4492 47.7067L43.5476 39.9235L46.8257 40.8858C49.864 41.7778 51.9862 44.6124 51.9862 47.779V56.2678C51.9862 57.3566 51.1004 58.2425 50.0116 58.2425H46.1377V54.454C46.1377 53.9686 45.7443 53.5751 45.2588 53.5751C44.7734 53.5751 44.3799 53.9685 44.3799 54.454V58.2425H15.6165V54.454C15.6165 53.9686 15.2231 53.5751 14.7376 53.5751C14.2521 53.5751 13.8587 53.9685 13.8587 54.454V58.2425H9.98877C8.89998 58.2425 8.01416 57.3566 8.01416 56.2678V54.5075C8.01416 54.0221 7.62076 53.6285 7.13525 53.6285C6.64975 53.6285 6.25635 54.0219 6.25635 54.5075V56.2677C6.25635 58.3258 7.93061 60 9.98865 60H50.0113C52.0694 60 53.7437 58.3258 53.7437 56.2677V47.7789C53.7437 43.8555 51.1758 40.331 47.3206 39.1991ZM13.8901 25.4263H9.91178C9.78885 25.4263 9.6951 25.3165 9.71596 25.1945L10.7788 18.9559H13.023L14.0859 25.1944C14.1066 25.3162 14.0136 25.4263 13.8901 25.4263ZM12.8859 15.6301V17.1982H10.9158V15.6301C10.9158 15.5956 10.9438 15.5676 10.9784 15.5676H12.8232C12.8579 15.5675 12.8859 15.5956 12.8859 15.6301ZM26.8567 43.731L27.2065 44.2687L18.2336 38.937L23.929 35.2169C24.1873 38.2473 25.1862 41.1635 26.8567 43.731ZM26.8506 39.9371C28.9194 40.231 31.0796 40.2312 33.1495 39.9371C32.7495 40.9212 32.2566 41.8709 31.6701 42.7725L30.0001 45.3394L28.33 42.7725C27.7435 41.8709 27.2506 40.9212 26.8506 39.9371ZM33.1434 43.731C34.8139 41.1635 35.8128 38.2473 36.071 35.2169L41.7664 38.9369L32.7936 44.2687L33.1434 43.731ZM38.2845 15.689H40.3676V18.513H39.3337C38.7551 18.513 38.2844 18.0423 38.2844 17.4638V15.689H38.2845ZM12.1387 7.43312L29.963 1.76358C29.9859 1.75632 30.0105 1.7562 30.0337 1.7637L47.8579 7.43312C47.8947 7.44483 47.9452 7.46077 47.9388 7.5523C47.9323 7.6437 47.8802 7.65249 47.842 7.65905L41.9488 8.66276L39.7364 8.38913C39.2549 8.32948 38.816 8.6719 38.7563 9.15355C38.6968 9.6353 39.0391 10.0741 39.5207 10.1336L41.0922 10.328V13.9313L18.908 13.9305V10.3279L28.0026 9.20253C29.3273 9.03882 30.6703 9.03882 31.994 9.20253L35.4362 9.62827C35.9178 9.68792 36.3567 9.34562 36.4163 8.86397C36.476 8.38222 36.1337 7.94347 35.652 7.88382L32.2099 7.45808C30.743 7.27655 29.2547 7.27655 27.7869 7.45808L18.0493 8.663L12.1544 7.65905C12.1162 7.65249 12.064 7.6437 12.0576 7.5523C12.0513 7.46077 12.1018 7.44472 12.1387 7.43312ZM19.6303 18.513L19.6291 15.689H21.7156V17.4639C21.7156 18.0423 21.245 18.5131 20.6663 18.5131H19.6303V18.513ZM21.5647 24.4009C21.5194 23.6853 20.9246 23.1246 20.2106 23.1246C19.8908 23.1246 19.6306 22.8645 19.6306 22.5448V20.2708H20.6663C22.214 20.2708 23.4733 19.0116 23.4733 17.4639V15.689H36.5267V17.4639C36.5267 19.0116 37.786 20.2708 39.3337 20.2708H40.3694V22.5448C40.3694 22.8645 40.1092 23.1246 39.7894 23.1246C39.0754 23.1246 38.4806 23.6853 38.4353 24.401C38.1554 28.8388 34.4501 32.3152 29.9999 32.3152C25.5497 32.3152 21.8446 28.8388 21.5647 24.4009ZM30.0001 34.0729C31.5632 34.0729 33.0489 33.7155 34.3803 33.08V33.6369C34.3803 35.1396 34.1776 36.6219 33.7872 38.0516C31.3987 38.507 28.6983 38.5254 26.2129 38.0516C25.8226 36.6221 25.6198 35.1398 25.6198 33.6369C25.6198 33.6183 25.6172 33.6001 25.6161 33.5817C25.6158 33.5781 25.6162 33.5745 25.616 33.5709V33.0782C26.9483 33.7148 28.4354 34.0729 30.0001 34.0729Z" fill="white"/>
</g>
<defs>
<clipPath id="clip0">
<rect width="60" height="60" fill="white"/>
</clipPath>
</defs>
</svg>
