<svg width="60" height="60" viewBox="0 0 60 60" fill="none" xmlns="http://www.w3.org/2000/svg">
<path d="M57.1875 36.5627H51.5625V33.7502C51.5625 32.1995 50.3006 30.9377 48.75 30.9377H39.375C38.5669 30.9377 37.8422 31.2855 37.3284 31.833L27.1875 30.1436V27.7942C29.985 26.1705 31.875 23.1489 31.875 19.6877H32.8125C34.3631 19.6877 35.625 18.4258 35.625 16.8752C35.625 15.3245 34.3631 14.0627 32.8125 14.0627H32.3625L32.8763 12.8711C33.84 10.6389 33.6675 8.06079 32.4169 5.97579C31.6237 4.65392 30.4641 3.61798 29.0616 2.98048L26.445 1.78892C23.3559 0.38267 19.5694 0.794232 16.8534 2.82954L15.375 3.93767L15.3769 3.94048C13.9144 4.32204 12.6234 5.26329 11.8303 6.58517C10.7981 8.30642 10.7175 10.4055 11.6147 12.2008L12.5456 14.0627H12.1875C10.6369 14.0627 9.375 15.3245 9.375 16.8752C9.375 18.4258 10.6369 19.6877 12.1875 19.6877H13.125C13.125 23.1489 15.015 26.1705 17.8125 27.7942V30.1436L6.42094 32.042C3.24375 32.5717 0.9375 35.2933 0.9375 38.5155V58.1252C0.9375 58.6436 1.3575 59.0627 1.875 59.0627H30.9375H31.875H57.1875C58.2216 59.0627 59.0625 58.2217 59.0625 57.1877V38.4377C59.0625 37.4036 58.2216 36.5627 57.1875 36.5627ZM49.6875 33.7502V36.5627H43.7513C43.2487 34.9586 42.1519 33.6255 40.7147 32.8127H48.75C49.2666 32.8127 49.6875 33.2327 49.6875 33.7502ZM38.4375 33.933C39.9141 34.2358 41.1319 35.2277 41.7469 36.5627H38.4375V33.933ZM33.75 16.8752C33.75 17.3917 33.3291 17.8127 32.8125 17.8127H31.875V15.9377H32.8125C33.3291 15.9377 33.75 16.3586 33.75 16.8752ZM13.4381 7.54986C14.1506 6.36298 15.4537 5.62517 16.8375 5.62517C18.3075 5.62517 19.6716 6.35548 20.4881 7.57798L20.7825 8.01954L22.3425 6.97986L22.0481 6.53829C21.2025 5.27079 19.9416 4.38017 18.5119 3.98454C20.6344 2.66829 23.3841 2.45454 25.6678 3.49423L28.2844 4.68579C29.3391 5.16579 30.2119 5.94486 30.8091 6.93954C31.7503 8.50798 31.8797 10.4477 31.155 12.1277L31.0922 12.2739L29.9016 9.89267C29.7769 9.64423 29.5491 9.46329 29.2781 9.39954C29.0081 9.33486 28.7231 9.39579 28.5 9.56173L27 10.6867C25.71 11.6552 24.1116 12.1877 22.5 12.1877C20.8884 12.1877 19.29 11.6552 18 10.6877L16.5 9.56267C16.2769 9.39486 15.9909 9.33486 15.7219 9.40048C15.4509 9.46423 15.2231 9.64517 15.0984 9.89361L13.8281 12.4352L13.2919 11.3627C12.6825 10.1439 12.7369 8.71798 13.4381 7.54986ZM12.1875 17.8127C11.6709 17.8127 11.25 17.3917 11.25 16.8752C11.25 16.3586 11.6709 15.9377 12.1875 15.9377H13.125V17.8127H12.1875ZM15 19.6877V14.2839L16.2731 11.7367L16.875 12.1877C18.4875 13.397 20.4853 14.0627 22.5 14.0627C24.5147 14.0627 26.5125 13.397 28.125 12.1877L28.7269 11.7367L30 14.2839V19.6877C30 23.823 26.6353 27.1877 22.5 27.1877C18.3647 27.1877 15 23.823 15 19.6877ZM22.5 29.0627C23.4797 29.0627 24.4237 28.9108 25.3125 28.6305V30.5495L22.5 33.362L19.6875 30.5495V28.6305C20.5763 28.9108 21.5203 29.0627 22.5 29.0627ZM22.1972 39.3752H22.8028L24.3328 43.2002L22.5 51.1436L20.6672 43.2002L22.1972 39.3752ZM24.2775 35.4874L22.9359 37.5002H22.0641L20.7216 35.4874L21.0347 34.5489L21.8372 35.3514C22.02 35.5333 22.26 35.6252 22.5 35.6252C22.74 35.6252 22.98 35.5333 23.1628 35.3505L23.9653 34.548L24.2775 35.4874ZM12.1875 57.1877V41.2502H10.3125V57.1877H2.8125V38.5155C2.8125 36.2149 4.45969 34.2695 6.72937 33.8908L18.4284 31.9417L19.5525 33.0658L18.7978 35.3289C18.7059 35.6036 18.7463 35.9045 18.9075 36.1455L20.5087 38.5474L18.8166 42.7774C18.7453 42.9545 18.7312 43.1495 18.7734 43.3361L21.5859 55.5236C21.6844 55.9492 22.0631 56.2502 22.5 56.2502C22.9369 56.2502 23.3156 55.9492 23.4141 55.5236L26.2266 43.3361C26.2688 43.1505 26.2547 42.9555 26.1834 42.7774L24.4913 38.5474L26.0925 36.1455C26.2528 35.9045 26.2931 35.6036 26.2022 35.3289L25.4475 33.0658L26.5716 31.9417L36.5766 33.6086C36.5747 33.6564 36.5625 33.7014 36.5625 33.7502V36.5627H30.9375C29.9034 36.5627 29.0625 37.4036 29.0625 38.4377V57.1877H12.1875ZM31.875 57.1877H30.9375V55.3127H57.1884V57.1877H31.875ZM57.1884 53.4377H30.9375V45.8336C32.13 47.0533 33.7894 47.8127 35.625 47.8127H41.25V48.7502C41.25 50.3008 42.5119 51.5627 44.0625 51.5627C45.6131 51.5627 46.875 50.3008 46.875 48.7502V47.8127H52.5C54.3356 47.8127 55.9959 47.0524 57.1884 45.8336V53.4377ZM43.125 48.7502V44.0627H45V48.7502C45 49.2677 44.5791 49.6877 44.0625 49.6877C43.5459 49.6877 43.125 49.2677 43.125 48.7502ZM57.1875 41.2502C57.1875 43.8349 55.0847 45.9377 52.5 45.9377H46.875V43.1252C46.875 42.6067 46.455 42.1877 45.9375 42.1877H42.1875C41.67 42.1877 41.25 42.6067 41.25 43.1252V45.9377H35.625C33.0403 45.9377 30.9375 43.8349 30.9375 41.2502V38.4377H57.1875V41.2502Z" fill="white"/>
</svg>
