<svg width="40" height="40" viewBox="0 0 40 40" fill="none" xmlns="http://www.w3.org/2000/svg">
<g opacity="0.5" clip-path="url(#clip0)">
<path d="M39.5113 37.1554L28.1364 25.7805C30.3397 23.0589 31.6663 19.6005 31.6663 15.8339C31.6663 7.10402 24.563 0.000732422 15.8331 0.000732422C7.10321 0.000732422 0 7.10394 0 15.8339C0 24.5638 7.10329 31.6671 15.8332 31.6671C19.5998 31.6671 23.0581 30.3404 25.7797 28.1371L37.1546 39.512C37.4796 39.837 37.9063 40.0003 38.333 40.0003C38.7597 40.0003 39.1863 39.837 39.5113 39.512C40.163 38.8604 40.163 37.807 39.5113 37.1554ZM15.8332 28.3337C8.93991 28.3337 3.33333 22.7271 3.33333 15.8339C3.33333 8.94057 8.93991 3.33398 15.8332 3.33398C22.7265 3.33398 28.3331 8.94057 28.3331 15.8339C28.3331 22.7271 22.7264 28.3337 15.8332 28.3337Z" fill="#43D7C9"/>
</g>
<defs>
<clipPath id="clip0">
<rect width="40" height="40" fill="white"/>
</clipPath>
</defs>
</svg>
