<svg width="181" height="45" viewBox="0 0 181 45" fill="none" xmlns="http://www.w3.org/2000/svg">
<path d="M63.04 14.53C63.04 15.57 62.86 16.57 62.5 17.53C62.14 18.47 61.62 19.3 60.94 20.02C60.28 20.74 59.47 21.31 58.51 21.73C57.57 22.15 56.51 22.36 55.33 22.36C54.13 22.36 53.04 22.15 52.06 21.73C51.1 21.29 50.28 20.71 49.6 19.99C48.94 19.27 48.42 18.44 48.04 17.5C47.68 16.54 47.5 15.55 47.5 14.53C47.5 13.49 47.68 12.5 48.04 11.56C48.42 10.6 48.94 9.76 49.6 9.04C50.28 8.32 51.1 7.75 52.06 7.33C53.04 6.89 54.13 6.67 55.33 6.67C56.51 6.67 57.57 6.89 58.51 7.33C59.47 7.75 60.28 8.32 60.94 9.04C61.62 9.76 62.14 10.6 62.5 11.56C62.86 12.5 63.04 13.49 63.04 14.53ZM60.19 14.53C60.19 13.13 60.04 12 59.74 11.14C59.44 10.26 59.05 9.58 58.57 9.1C58.09 8.62 57.56 8.3 56.98 8.14C56.4 7.96 55.84 7.87 55.3 7.87C54.76 7.87 54.2 7.96 53.62 8.14C53.04 8.3 52.5 8.62 52 9.1C51.52 9.58 51.12 10.26 50.8 11.14C50.5 12 50.35 13.13 50.35 14.53C50.35 15.91 50.5 17.04 50.8 17.92C51.12 18.78 51.52 19.45 52 19.93C52.5 20.41 53.04 20.74 53.62 20.92C54.2 21.08 54.76 21.16 55.3 21.16C55.84 21.16 56.4 21.08 56.98 20.92C57.56 20.74 58.09 20.41 58.57 19.93C59.05 19.45 59.44 18.78 59.74 17.92C60.04 17.04 60.19 15.91 60.19 14.53ZM70.0949 0.999999H67.5449V22H70.0949V0.999999ZM86.2096 23.26C86.2096 24.18 86.0996 24.96 85.8796 25.6C85.6596 26.24 85.3496 26.76 84.9496 27.16C84.5696 27.56 84.1096 27.85 83.5696 28.03C83.0496 28.21 82.4896 28.3 81.8896 28.3C80.8296 28.3 79.9696 28.03 79.3096 27.49C78.6696 26.95 78.0796 26.23 77.5396 25.33L75.8896 26.83C76.0296 27.01 76.2496 27.24 76.5496 27.52C76.8496 27.82 77.2296 28.11 77.6896 28.39C78.1496 28.69 78.6996 28.94 79.3396 29.14C79.9796 29.36 80.7096 29.47 81.5296 29.47C83.0496 29.47 84.2796 29.25 85.2196 28.81C86.1596 28.39 86.8896 27.82 87.4096 27.1C87.9296 26.38 88.2796 25.55 88.4596 24.61C88.6596 23.69 88.7596 22.73 88.7596 21.73V7H86.2096V9.34H86.0896C85.8496 8.5 85.3296 7.85 84.5296 7.39C83.7496 6.91 82.7196 6.67 81.4396 6.67C80.4196 6.67 79.4896 6.86 78.6496 7.24C77.8096 7.6 77.0896 8.12 76.4896 8.8C75.8896 9.48 75.4196 10.3 75.0796 11.26C74.7596 12.22 74.5996 13.29 74.5996 14.47C74.5996 15.67 74.7596 16.76 75.0796 17.74C75.4196 18.7 75.8896 19.53 76.4896 20.23C77.0896 20.91 77.7996 21.44 78.6196 21.82C79.4596 22.18 80.3896 22.36 81.4096 22.36C82.5296 22.36 83.4996 22.14 84.3196 21.7C85.1596 21.26 85.7496 20.56 86.0896 19.6H86.2096V23.26ZM86.2096 15.61C86.2096 16.45 86.0896 17.19 85.8496 17.83C85.6296 18.47 85.3296 19.01 84.9496 19.45C84.5696 19.89 84.1296 20.23 83.6296 20.47C83.1296 20.69 82.6096 20.8 82.0696 20.8C81.5896 20.8 81.0696 20.72 80.5096 20.56C79.9696 20.38 79.4596 20.06 78.9796 19.6C78.5196 19.14 78.1296 18.49 77.8096 17.65C77.5096 16.81 77.3596 15.73 77.3596 14.41C77.3596 13.01 77.5496 11.9 77.9296 11.08C78.3096 10.24 78.7496 9.6 79.2496 9.16C79.7696 8.72 80.2896 8.44 80.8096 8.32C81.3496 8.18 81.7696 8.11 82.0696 8.11C82.7296 8.11 83.3196 8.26 83.8396 8.56C84.3596 8.84 84.7896 9.23 85.1296 9.73C85.4896 10.21 85.7596 10.77 85.9396 11.41C86.1196 12.05 86.2096 12.71 86.2096 13.39V15.61ZM99.0665 6.67C100.526 6.67 101.656 6.88 102.456 7.3C103.256 7.7 103.836 8.23 104.196 8.89C104.576 9.55 104.796 10.31 104.856 11.17C104.916 12.03 104.946 12.91 104.946 13.81V22H102.516V20.53C101.936 21.09 101.196 21.54 100.296 21.88C99.3965 22.2 98.4965 22.36 97.5965 22.36C96.7365 22.36 95.9765 22.21 95.3165 21.91C94.6565 21.61 94.1065 21.22 93.6665 20.74C93.2265 20.26 92.8965 19.72 92.6765 19.12C92.4565 18.52 92.3465 17.91 92.3465 17.29C92.3465 16.65 92.4665 16.01 92.7065 15.37C92.9465 14.73 93.3065 14.16 93.7865 13.66C94.2665 13.14 94.8565 12.72 95.5565 12.4C96.2565 12.08 97.0565 11.92 97.9565 11.92C98.8565 11.92 99.7065 12.1 100.506 12.46C101.326 12.8 101.996 13.29 102.516 13.93V12.64C102.516 11 102.266 9.78 101.766 8.98C101.286 8.18 100.396 7.78 99.0965 7.78C98.5365 7.78 98.0465 7.85 97.6265 7.99C97.2065 8.13 96.8265 8.33 96.4865 8.59C96.1665 8.83 95.8665 9.14 95.5865 9.52C95.3065 9.88 95.0265 10.29 94.7465 10.75L93.1865 9.19C93.4665 8.89 93.7565 8.59 94.0565 8.29C94.3765 7.99 94.7565 7.72 95.1965 7.48C95.6565 7.24 96.1965 7.05 96.8165 6.91C97.4365 6.75 98.1865 6.67 99.0665 6.67ZM102.516 16.06C102.416 15.82 102.266 15.54 102.066 15.22C101.886 14.9 101.646 14.59 101.346 14.29C101.046 13.99 100.686 13.74 100.266 13.54C99.8465 13.32 99.3465 13.21 98.7665 13.21C98.1865 13.21 97.6565 13.33 97.1765 13.57C96.6965 13.79 96.2865 14.09 95.9465 14.47C95.6265 14.83 95.3765 15.26 95.1965 15.76C95.0165 16.26 94.9265 16.78 94.9265 17.32C94.9265 17.96 95.0365 18.52 95.2565 19C95.4965 19.46 95.7965 19.86 96.1565 20.2C96.5165 20.52 96.9165 20.76 97.3565 20.92C97.7965 21.08 98.2165 21.16 98.6165 21.16C98.9965 21.16 99.3765 21.09 99.7565 20.95C100.156 20.81 100.526 20.62 100.866 20.38C101.226 20.12 101.546 19.82 101.826 19.48C102.106 19.14 102.336 18.77 102.516 18.37V16.06ZM109.748 20.71C109.748 20.27 109.908 19.89 110.228 19.57C110.548 19.25 110.928 19.09 111.368 19.09C111.808 19.09 112.188 19.25 112.508 19.57C112.828 19.89 112.988 20.27 112.988 20.71C112.988 21.15 112.828 21.53 112.508 21.85C112.188 22.17 111.808 22.33 111.368 22.33C110.928 22.33 110.548 22.17 110.228 21.85C109.908 21.53 109.748 21.15 109.748 20.71ZM117.775 0.999999V22H120.325V13.33C120.325 12.93 120.355 12.44 120.415 11.86C120.475 11.28 120.635 10.72 120.895 10.18C121.175 9.64 121.585 9.18 122.125 8.8C122.665 8.4 123.415 8.2 124.375 8.2C125.055 8.2 125.595 8.33 125.995 8.59C126.415 8.83 126.735 9.16 126.955 9.58C127.175 10 127.315 10.49 127.375 11.05C127.455 11.61 127.495 12.19 127.495 12.79V22H130.045V12.1C130.045 10.98 129.885 10.07 129.565 9.37C129.245 8.65 128.845 8.09 128.365 7.69C127.885 7.29 127.355 7.02 126.775 6.88C126.215 6.74 125.675 6.67 125.155 6.67C124.455 6.67 123.715 6.81 122.935 7.09C122.175 7.35 121.455 7.86 120.775 8.62L120.445 9.04H120.325V0.999999H117.775ZM134.855 7V22H137.405V12.94C137.405 12.12 137.495 11.43 137.675 10.87C137.875 10.29 138.125 9.82 138.425 9.46C138.725 9.1 139.055 8.84 139.415 8.68C139.775 8.52 140.125 8.44 140.465 8.44C140.925 8.44 141.345 8.59 141.725 8.89C142.125 9.19 142.415 9.47 142.595 9.73L143.615 7.87C143.435 7.63 143.215 7.43 142.955 7.27C142.715 7.11 142.465 6.99 142.205 6.91C141.965 6.81 141.735 6.75 141.515 6.73C141.315 6.69 141.165 6.67 141.065 6.67C140.225 6.67 139.525 6.9 138.965 7.36C138.405 7.82 137.945 8.5 137.585 9.4H137.405V7H134.855Z" fill="#4F4F4F"/>
<path d="M96.958 39.28C96.526 39.28 96.106 39.214 95.698 39.082C95.302 38.95 94.948 38.74 94.636 38.452C94.324 38.152 94.072 37.762 93.88 37.282C93.7 36.79 93.61 36.19 93.61 35.482C93.61 34.75 93.712 34.132 93.916 33.628C94.12 33.112 94.372 32.704 94.672 32.404C94.984 32.092 95.326 31.87 95.698 31.738C96.07 31.594 96.424 31.522 96.76 31.522C97.312 31.522 97.792 31.666 98.2 31.954C98.608 32.242 98.878 32.596 99.01 33.016H100.252C100.132 32.584 99.94 32.23 99.676 31.954C99.412 31.666 99.106 31.438 98.758 31.27C98.422 31.09 98.056 30.97 97.66 30.91C97.276 30.838 96.904 30.802 96.544 30.802C95.788 30.802 95.122 30.928 94.546 31.18C93.97 31.42 93.484 31.75 93.088 32.17C92.692 32.59 92.392 33.082 92.188 33.646C91.996 34.21 91.9 34.81 91.9 35.446C91.9 36.118 92.008 36.748 92.224 37.336C92.44 37.912 92.746 38.416 93.142 38.848C93.55 39.268 94.036 39.604 94.6 39.856C95.164 40.096 95.8 40.216 96.508 40.216C97.3 40.216 97.99 40.084 98.578 39.82C99.178 39.556 99.682 39.268 100.09 38.956L99.568 38.272C99.148 38.62 98.728 38.878 98.308 39.046C97.9 39.202 97.45 39.28 96.958 39.28ZM111.015 35.518C111.015 36.142 110.907 36.742 110.691 37.318C110.475 37.882 110.163 38.38 109.755 38.812C109.359 39.244 108.873 39.586 108.297 39.838C107.733 40.09 107.097 40.216 106.389 40.216C105.669 40.216 105.015 40.09 104.427 39.838C103.851 39.574 103.359 39.226 102.951 38.794C102.555 38.362 102.243 37.864 102.015 37.3C101.799 36.724 101.691 36.13 101.691 35.518C101.691 34.894 101.799 34.3 102.015 33.736C102.243 33.16 102.555 32.656 102.951 32.224C103.359 31.792 103.851 31.45 104.427 31.198C105.015 30.934 105.669 30.802 106.389 30.802C107.097 30.802 107.733 30.934 108.297 31.198C108.873 31.45 109.359 31.792 109.755 32.224C110.163 32.656 110.475 33.16 110.691 33.736C110.907 34.3 111.015 34.894 111.015 35.518ZM109.305 35.518C109.305 34.678 109.215 34 109.035 33.484C108.855 32.956 108.621 32.548 108.333 32.26C108.045 31.972 107.727 31.78 107.379 31.684C107.031 31.576 106.695 31.522 106.371 31.522C106.047 31.522 105.711 31.576 105.363 31.684C105.015 31.78 104.691 31.972 104.391 32.26C104.103 32.548 103.863 32.956 103.671 33.484C103.491 34 103.401 34.678 103.401 35.518C103.401 36.346 103.491 37.024 103.671 37.552C103.863 38.068 104.103 38.47 104.391 38.758C104.691 39.046 105.015 39.244 105.363 39.352C105.711 39.448 106.047 39.496 106.371 39.496C106.695 39.496 107.031 39.448 107.379 39.352C107.727 39.244 108.045 39.046 108.333 38.758C108.621 38.47 108.855 38.068 109.035 37.552C109.215 37.024 109.305 36.346 109.305 35.518ZM120.882 40V34.168C120.882 33.952 120.864 33.658 120.828 33.286C120.792 32.902 120.672 32.53 120.468 32.17C120.276 31.798 119.964 31.48 119.532 31.216C119.1 30.94 118.488 30.802 117.696 30.802C117.348 30.79 116.958 30.862 116.526 31.018C116.094 31.162 115.668 31.444 115.248 31.864L114.96 32.152H114.888V31H113.358V40H114.888V34.438C114.888 33.97 114.954 33.568 115.086 33.232C115.218 32.896 115.398 32.614 115.626 32.386C115.854 32.158 116.112 31.99 116.4 31.882C116.7 31.774 117.006 31.72 117.318 31.72C117.822 31.72 118.212 31.822 118.488 32.026C118.764 32.218 118.962 32.446 119.082 32.71C119.214 32.974 119.292 33.238 119.316 33.502C119.34 33.766 119.352 33.958 119.352 34.078V40H120.882ZM129.559 33.052C129.559 32.728 129.475 32.428 129.307 32.152C129.139 31.876 128.905 31.642 128.605 31.45C128.317 31.246 127.975 31.09 127.579 30.982C127.195 30.862 126.781 30.802 126.337 30.802C125.917 30.802 125.521 30.856 125.149 30.964C124.789 31.072 124.471 31.234 124.195 31.45C123.931 31.666 123.721 31.936 123.565 32.26C123.409 32.572 123.331 32.938 123.331 33.358C123.331 33.934 123.463 34.39 123.727 34.726C123.991 35.062 124.321 35.332 124.717 35.536C125.113 35.74 125.539 35.908 125.995 36.04C126.463 36.16 126.895 36.298 127.291 36.454C127.687 36.598 128.017 36.784 128.281 37.012C128.545 37.24 128.677 37.552 128.677 37.948C128.677 38.116 128.647 38.29 128.587 38.47C128.539 38.65 128.443 38.818 128.299 38.974C128.155 39.118 127.957 39.244 127.705 39.352C127.453 39.448 127.135 39.496 126.751 39.496C126.271 39.496 125.863 39.424 125.527 39.28C125.203 39.124 124.933 38.944 124.717 38.74C124.513 38.524 124.363 38.308 124.267 38.092C124.183 37.876 124.141 37.696 124.141 37.552H122.971C122.971 37.888 123.049 38.218 123.205 38.542C123.361 38.854 123.595 39.136 123.907 39.388C124.231 39.64 124.621 39.844 125.077 40C125.545 40.144 126.085 40.216 126.697 40.216C127.801 40.216 128.629 39.976 129.181 39.496C129.745 39.004 130.027 38.362 130.027 37.57C130.027 36.994 129.889 36.532 129.613 36.184C129.349 35.836 129.013 35.56 128.605 35.356C128.197 35.14 127.753 34.966 127.273 34.834C126.805 34.702 126.367 34.564 125.959 34.42C125.551 34.276 125.209 34.102 124.933 33.898C124.669 33.694 124.537 33.406 124.537 33.034C124.537 32.878 124.567 32.716 124.627 32.548C124.687 32.368 124.789 32.206 124.933 32.062C125.077 31.906 125.269 31.78 125.509 31.684C125.749 31.576 126.049 31.522 126.409 31.522C126.769 31.522 127.081 31.576 127.345 31.684C127.609 31.78 127.831 31.906 128.011 32.062C128.191 32.206 128.323 32.368 128.407 32.548C128.491 32.728 128.533 32.896 128.533 33.052H129.559ZM132.465 31V36.85C132.465 37.066 132.483 37.366 132.519 37.75C132.567 38.122 132.693 38.494 132.897 38.866C133.101 39.226 133.419 39.544 133.851 39.82C134.295 40.084 134.913 40.216 135.705 40.216C136.053 40.228 136.431 40.156 136.839 40C137.259 39.856 137.679 39.574 138.099 39.154L138.387 38.866H138.459V40H139.989V31H138.459V36.58C138.459 37.048 138.393 37.45 138.261 37.786C138.129 38.122 137.955 38.404 137.739 38.632C137.523 38.848 137.271 39.01 136.983 39.118C136.695 39.226 136.395 39.28 136.083 39.28C135.579 39.28 135.183 39.184 134.895 38.992C134.619 38.788 134.409 38.554 134.265 38.29C134.133 38.026 134.055 37.768 134.031 37.516C134.007 37.252 133.995 37.06 133.995 36.94V31H132.465ZM144.814 27.4H143.284V40H144.814V27.4ZM147.157 31.72V31H148.723V28.228H150.253V31H152.431V31.72H150.253V37.696C150.253 37.84 150.259 38.008 150.271 38.2C150.283 38.38 150.319 38.554 150.379 38.722C150.439 38.878 150.529 39.01 150.649 39.118C150.781 39.226 150.961 39.28 151.189 39.28C151.477 39.28 151.717 39.172 151.909 38.956C152.101 38.74 152.257 38.506 152.377 38.254L153.223 39.118C152.635 39.706 151.969 40 151.225 40C150.913 40 150.607 39.946 150.307 39.838C150.007 39.73 149.737 39.568 149.497 39.352C149.269 39.124 149.083 38.836 148.939 38.488C148.795 38.14 148.723 37.732 148.723 37.264V31.72H147.157ZM155.383 31V40H156.913V31H155.383ZM155.167 28.156C155.167 28.42 155.263 28.648 155.455 28.84C155.647 29.032 155.875 29.128 156.139 29.128C156.403 29.128 156.631 29.032 156.823 28.84C157.015 28.648 157.111 28.42 157.111 28.156C157.111 27.892 157.015 27.664 156.823 27.472C156.631 27.28 156.403 27.184 156.139 27.184C155.875 27.184 155.647 27.28 155.455 27.472C155.263 27.664 155.167 27.892 155.167 28.156ZM167.868 40V34.168C167.868 33.952 167.85 33.658 167.814 33.286C167.778 32.902 167.658 32.53 167.454 32.17C167.262 31.798 166.95 31.48 166.518 31.216C166.086 30.94 165.474 30.802 164.682 30.802C164.334 30.79 163.944 30.862 163.512 31.018C163.08 31.162 162.654 31.444 162.234 31.864L161.946 32.152H161.874V31H160.344V40H161.874V34.438C161.874 33.97 161.94 33.568 162.072 33.232C162.204 32.896 162.384 32.614 162.612 32.386C162.84 32.158 163.098 31.99 163.386 31.882C163.686 31.774 163.992 31.72 164.304 31.72C164.808 31.72 165.198 31.822 165.474 32.026C165.75 32.218 165.948 32.446 166.068 32.71C166.2 32.974 166.278 33.238 166.302 33.502C166.326 33.766 166.338 33.958 166.338 34.078V40H167.868ZM177.229 40.756C177.229 41.308 177.163 41.776 177.031 42.16C176.899 42.544 176.713 42.856 176.473 43.096C176.245 43.336 175.969 43.51 175.645 43.618C175.333 43.726 174.997 43.78 174.637 43.78C174.001 43.78 173.485 43.618 173.089 43.294C172.705 42.97 172.351 42.538 172.027 41.998L171.037 42.898C171.121 43.006 171.253 43.144 171.433 43.312C171.613 43.492 171.841 43.666 172.117 43.834C172.393 44.014 172.723 44.164 173.107 44.284C173.491 44.416 173.929 44.482 174.421 44.482C175.333 44.482 176.071 44.35 176.635 44.086C177.199 43.834 177.637 43.492 177.949 43.06C178.261 42.628 178.471 42.13 178.579 41.566C178.699 41.014 178.759 40.438 178.759 39.838V31H177.229V32.404H177.157C177.013 31.9 176.701 31.51 176.221 31.234C175.753 30.946 175.135 30.802 174.367 30.802C173.755 30.802 173.197 30.916 172.693 31.144C172.189 31.36 171.757 31.672 171.397 32.08C171.037 32.488 170.755 32.98 170.551 33.556C170.359 34.132 170.263 34.774 170.263 35.482C170.263 36.202 170.359 36.856 170.551 37.444C170.755 38.02 171.037 38.518 171.397 38.938C171.757 39.346 172.183 39.664 172.675 39.892C173.179 40.108 173.737 40.216 174.349 40.216C175.021 40.216 175.603 40.084 176.095 39.82C176.599 39.556 176.953 39.136 177.157 38.56H177.229V40.756ZM177.229 36.166C177.229 36.67 177.157 37.114 177.013 37.498C176.881 37.882 176.701 38.206 176.473 38.47C176.245 38.734 175.981 38.938 175.681 39.082C175.381 39.214 175.069 39.28 174.745 39.28C174.457 39.28 174.145 39.232 173.809 39.136C173.485 39.028 173.179 38.836 172.891 38.56C172.615 38.284 172.381 37.894 172.189 37.39C172.009 36.886 171.919 36.238 171.919 35.446C171.919 34.606 172.033 33.94 172.261 33.448C172.489 32.944 172.753 32.56 173.053 32.296C173.365 32.032 173.677 31.864 173.989 31.792C174.313 31.708 174.565 31.666 174.745 31.666C175.141 31.666 175.495 31.756 175.807 31.936C176.119 32.104 176.377 32.338 176.581 32.638C176.797 32.926 176.959 33.262 177.067 33.646C177.175 34.03 177.229 34.426 177.229 34.834V36.166Z" fill="#4F4F4F"/>
<path d="M12 39H1C2.33333 35.1667 8.8 27.5 24 27.5C39.2 27.5 45.3333 35.1667 46.5 39H24L15 20.5L24 1L34.5 20.5" stroke="#333333" stroke-width="2" stroke-linecap="round" stroke-linejoin="round"/>
</svg>
